<mxfile host="app.diagrams.net" modified="2024-06-20T07:56:07.201Z" agent="Mozilla/5.0 (Windows NT 10.0; Win64; x64) AppleWebKit/537.36 (KHTML, like Gecko) Chrome/126.0.0.0 Safari/537.36" etag="z8eo_yY9AaTMQ_FFktgW" version="24.5.5" type="github">
  <diagram name="Page-1" id="sQmlC3fLjwBJ_Fiscz6t">
    <mxGraphModel dx="3000" dy="1491" grid="1" gridSize="10" guides="1" tooltips="1" connect="1" arrows="1" fold="1" page="1" pageScale="1" pageWidth="827" pageHeight="1169" math="0" shadow="0">
      <root>
        <mxCell id="0" />
        <mxCell id="1" parent="0" />
        <mxCell id="BCa-CSndM-8VxF5RBBI_-3" value="" style="edgeStyle=orthogonalEdgeStyle;rounded=0;orthogonalLoop=1;jettySize=auto;html=1;" edge="1" parent="1" source="BCa-CSndM-8VxF5RBBI_-1" target="BCa-CSndM-8VxF5RBBI_-2">
          <mxGeometry relative="1" as="geometry" />
        </mxCell>
        <mxCell id="BCa-CSndM-8VxF5RBBI_-1" value="" style="whiteSpace=wrap;html=1;aspect=fixed;" vertex="1" parent="1">
          <mxGeometry x="120" y="230" width="80" height="80" as="geometry" />
        </mxCell>
        <mxCell id="BCa-CSndM-8VxF5RBBI_-2" value="" style="shape=step;perimeter=stepPerimeter;whiteSpace=wrap;html=1;fixedSize=1;" vertex="1" parent="1">
          <mxGeometry x="260" y="230" width="120" height="80" as="geometry" />
        </mxCell>
      </root>
    </mxGraphModel>
  </diagram>
</mxfile>
